<svg width="43" height="34" viewBox="0 0 43 34" fill="none" xmlns="http://www.w3.org/2000/svg">
  <path d="M42.5932 16.8384L26.3875 0.870479C26.354 0.836744 26.3141 0.809975 26.2701 0.791708C26.2262 0.773442 26.179 0.764038 26.1315 0.764038C26.0839 0.764038 26.0367 0.773442 25.9928 0.791708C25.9489 0.809975 25.909 0.836744 25.8754 0.870479L14.9603 11.6255C14.8916 11.6937 14.8526 11.7862 14.8517 11.8829C14.8509 11.9797 14.8883 12.0729 14.9557 12.1422L14.9603 12.1468L16.6843 13.8449C16.7421 13.9018 16.742 13.995 16.6842 14.0519L11.4302 19.2208C11.3615 19.2889 11.3225 19.3815 11.3216 19.4782C11.3208 19.575 11.3581 19.6682 11.4256 19.7375L11.4302 19.7421L13.1315 21.4176C13.1892 21.4744 13.1893 21.5674 13.1318 21.6243L4.63182 30.0299C4.60463 30.0568 4.56794 30.0719 4.52971 30.0719H0.649687C0.448487 30.0719 0.279297 30.2365 0.279297 30.4377V32.9618C0.279297 33.163 0.443915 33.3276 0.645114 33.3276H17.8686C17.9646 33.3276 18.056 33.2911 18.1246 33.2225L21.5026 29.8667C21.559 29.8106 21.6501 29.8104 21.7068 29.8663L23.4518 31.5854C23.4854 31.6192 23.5253 31.6459 23.5693 31.6642C23.6132 31.6825 23.6603 31.6919 23.7079 31.6919C23.7555 31.6919 23.8026 31.6825 23.8466 31.6642C23.8905 31.6459 23.9304 31.6192 23.964 31.5854L29.2167 26.4C29.2732 26.3442 29.3641 26.3441 29.4207 26.3999L31.1523 28.1056C31.1859 28.1393 31.2258 28.1661 31.2697 28.1844C31.3137 28.2026 31.3608 28.212 31.4084 28.212C31.456 28.212 31.5031 28.2026 31.547 28.1844C31.591 28.1661 31.6309 28.1393 31.6644 28.1056L42.5795 17.3506C42.735 17.2134 42.735 16.9847 42.5932 16.8384ZM16.6718 30.0021C16.6446 30.0292 16.6078 30.0444 16.5694 30.0444H9.65705C9.52731 30.0444 9.46268 29.8872 9.5549 29.796L15.3477 24.0636C15.4042 24.0076 15.4951 24.0075 15.5517 24.0633L19.0079 27.4677C19.0654 27.5244 19.0657 27.6171 19.0085 27.674L16.6718 30.0021Z" fill="#53585f"/>
</svg>
