<svg width="64" height="64" viewBox="0 0 64 64" fill="none" xmlns="http://www.w3.org/2000/svg">
  <circle cx="32" cy="32" r="32" fill="#EBFFFB"/>
  <path d="M54.5932 28.8383L38.3875 12.8704C38.354 12.8367 38.3141 12.8099 38.2701 12.7916C38.2262 12.7734 38.179 12.764 38.1315 12.764C38.0839 12.764 38.0367 12.7734 37.9928 12.7916C37.9489 12.8099 37.909 12.8367 37.8754 12.8704L26.9603 23.6255C26.8916 23.6936 26.8526 23.7861 26.8517 23.8829C26.8509 23.9796 26.8883 24.0728 26.9557 24.1422L26.9603 24.1467L28.6843 25.8449C28.7421 25.9018 28.742 25.995 28.6842 26.0518L23.4302 31.2207C23.3615 31.2889 23.3225 31.3814 23.3216 31.4782C23.3208 31.5749 23.3581 31.6681 23.4256 31.7375L23.4302 31.742L25.1316 33.4176C25.1892 33.4744 25.1893 33.5674 25.1318 33.6243L16.6318 42.0298C16.6046 42.0567 16.5679 42.0718 16.5297 42.0718H12.6497C12.4485 42.0718 12.2793 42.2364 12.2793 42.4376V44.9618C12.2793 45.163 12.4439 45.3276 12.6451 45.3276H29.8686C29.9646 45.3276 30.056 45.291 30.1246 45.2224L33.5026 41.8667C33.559 41.8106 33.6501 41.8104 33.7068 41.8662L35.4518 43.5854C35.4854 43.6191 35.5253 43.6459 35.5693 43.6641C35.6132 43.6824 35.6603 43.6918 35.7079 43.6918C35.7555 43.6918 35.8026 43.6824 35.8466 43.6641C35.8905 43.6459 35.9304 43.6191 35.964 43.5854L41.2167 38.3999C41.2732 38.3441 41.3641 38.3441 41.4207 38.3998L43.1523 40.1055C43.1859 40.1393 43.2258 40.166 43.2697 40.1843C43.3137 40.2026 43.3608 40.212 43.4084 40.212C43.456 40.212 43.5031 40.2026 43.547 40.1843C43.591 40.166 43.6309 40.1393 43.6644 40.1055L54.5795 29.3505C54.735 29.2133 54.735 28.9847 54.5932 28.8383ZM28.6718 42.002C28.6446 42.0291 28.6078 42.0444 28.5694 42.0444H21.657C21.5273 42.0444 21.4627 41.8872 21.5549 41.7959L27.3477 36.0635C27.4042 36.0076 27.4951 36.0075 27.5517 36.0633L31.0079 39.4677C31.0654 39.5243 31.0657 39.617 31.0085 39.674L28.6718 42.002Z" fill="#0B3C49"/>
</svg>
