<svg xmlns="http://www.w3.org/2000/svg" width="133.788" height="212.09" data-name="Layer 1"><path d="M.198 78.92c1.85 2.55 17.45 7.36 40.72 12.37 23.27 4.46 47.47 22.07 66.29 16.64 12.73-3.68 26.54-36.47 26.54-41.34v-.5c0-3.4-2.55-6.13-6.88-8.4-17.75-9.07-21.11-12.41-27.69-10.6-34.16 9.43-94.47 4.61-98.98 31.83zM.198 145.5c1.85 2.59 17.45 7.36 40.72 12.38 26 4.74 48.61 20.19 67.44 14.75 12.73-3.68 25.39-34.58 25.39-39.46v-.48c0-3.39-2.55-6.13-6.88-8.39-13.54-7.2-31.43-15.13-38-13.32-34.22 9.41-79.96 11.48-88.67 34.52z" style="fill:#380d09;fill-rule:evenodd"/><path d="M.008 93.23v.48a3.73 3.73 0 0 1 0-.48z" style="fill:#555;fill-rule:evenodd"/><path d="M108.308 12.87C76.848 21.96 26.938 27.09.048 27.09v51.35a.8.8 0 0 0 .19.48c18.35 0 75-6 109.18-15.4a129 129 0 0 0 17.49-5.81c4.18-1.88 6.88-3.86 6.88-5.92V0c-.04 4.88-12.75 9.2-25.48 12.87zM108.308 79.46c-18.83 5.43-44.24 9.47-67.39 11.83-15.54 1.59-30.06 2.42-40.87 2.42v51.31a.8.8 0 0 0 .19.48c18.35 0 75-6 109.18-15.39a130.38 130.38 0 0 0 17.49-5.81c4.18-1.89 6.88-3.86 6.88-5.92V66.59c-.04 4.87-12.75 9.19-25.48 12.87zM108.308 146.09c-18.83 5.43-44.24 9.46-67.39 11.83-15.56 1.59-30.1 2.42-40.91 2.42v51.75c18.16 0 75.1-5.95 109.37-15.39 12.63-3.48 24.37-7.44 24.37-11.74v-51.79c0 4.92-12.71 9.2-25.44 12.92z" style="fill:#de3423;fill-rule:evenodd"/></svg>
