<?xml version="1.0" encoding="utf-8"?>
<!-- Generator: Adobe Illustrator 23.0.6, SVG Export Plug-In . SVG Version: 6.00 Build 0)  -->
<svg version="1.1" id="Layer_1" xmlns="http://www.w3.org/2000/svg" xmlns:xlink="http://www.w3.org/1999/xlink" x="0px" y="0px"
	 viewBox="0 0 368.5 368.5" style="enable-background:new 0 0 368.5 368.5;" xml:space="preserve">
<style type="text/css">
	.st0{fill:#5BBF20;}
	.st1{fill:url(#rect3854_1_);stroke:url(#rect3854_2_);stroke-miterlimit:10;}
	.st2{fill:url(#rect4385_1_);}
	.st3{fill:url(#rect4388_1_);}
	.st4{fill:url(#path4399_1_);}
</style>
<g>
	<g>
		<g>
			<path class="st0" d="M302.4,121.5c-0.5,0.3,0.8,2.9-2.3-0.4c-2.4-2.7-4.5-5.4-6.7-7.9c-1.1-1.3-2.1-2.5-3.1-3.8
				c-1-1.3-2-2.6-3.1-3.8c-2.1-2.4-4.3-4.9-6.5-7.3c-2.4-2.4-4.8-4.7-7.6-7.1c-0.5,0-0.9,0-1.4,0c-8-7.7-16.8-15.3-26.4-22.4
				c-18.4-12-37.9-22-59.7-28c0.5,0.5,0.6,0.9-1.5,0.4c-4.5-1.1-10-2.4-16.1-3.4c-3-0.5-6.3-0.9-9.6-1.1c-0.8-0.1-1.7-0.1-2.5-0.2
				c-0.8-0.1-1.7-0.1-2.5-0.1c-1.7,0-3.4-0.1-5.1-0.1c-2,0.2-4.1,0.3-6.1,0.4c-1.5,0.3-1.9,0.7-2.1,1c-1.5,0.1-3,0.3-4.5,0.4
				c-1.4,0.2-2.9,0.4-4.2,0.6c-2.8,0.3-5.3,0.9-7.8,1.4c-16.2,4.3-31.4,11.8-44.5,22.1c-6.6,5.1-12.7,10.9-18.1,17.3
				c-5.4,6.4-10.2,13.3-14.3,20.5c-8.2,14.5-13.8,30.6-16.2,47.3c-2.6,16.7-1.9,34.2,1.8,50.9c3.4,14.1,8.5,27.4,13.6,40
				c3.7,9.4,8.3,19.9,13.7,30.1c5.4,10.1,11.6,19.8,17.7,27.6c0.2-1.1,2.3,0.3,5.3,2.9c1.6,1.3,3.3,2.8,5.2,4.4c1.9,1.6,4,3.3,6,4.9
				c2.1,1.6,4.1,3.1,6,4.4c1.9,1.2,3.6,2.3,5,3c2.8,1.4,4.2,1.5,2.9-0.6c4.8,4.1,11.2,8.6,16.8,11.8c1.4,0.7,2.7,1.4,4,2.1
				c0.6,0.3,1.2,0.6,1.7,0.9c0.6,0.3,1.1,0.5,1.6,0.7c1.9,0.8,3.2,1.2,3.5,1.1c0.5-0.2,1.1-0.3,1.7-0.4c0.7-0.1,1.5-0.2,2.5-0.2
				c2,0,4.4,0.3,7.8,0.7c1.7,0.2,3.5,0.6,5.7,0.8c2.1,0.2,4.5,0.7,7.1,0.9c1.3,0.1,2.7,0.3,4.1,0.4c1.5,0.1,3,0.2,4.6,0.3
				c1.6,0.2,3.3,0.1,5,0.2c0.9,0,1.8,0,2.7,0.1c0.9,0,1.8-0.1,2.8-0.1c3,0.1,6.3-0.1,9.7-0.2c1.7-0.2,3.4-0.3,5.1-0.5
				c1.7-0.2,3.3-0.5,4.9-0.7c1.6-0.2,3.1-0.6,4.5-0.9c0.7-0.2,1.4-0.3,2-0.5c0.7-0.1,1.3-0.3,1.9-0.5c2.3-0.8,4.1-1.4,5-1.9
				c1.7-0.9,1.4-1.1,0.2-0.9c-0.6,0.1-1.3,0.2-2.1,0.3c-0.8,0.2-1.7,0.3-2.7,0.5c-1.8,0.4-3.7,0.5-4.7,0.6c-1,0-1.2-0.2,0.3-0.8
				c-5,1.4-10.2,2-15.4,2.4c-2.6,0-5.2,0.3-7.9,0.1c-1.3-0.1-2.6,0-4-0.2l-4-0.4c-1.3-0.1-2.6-0.3-3.9-0.5c-1.3-0.2-2.6-0.4-3.9-0.7
				l-3.9-0.9c-0.6-0.2-1.3-0.3-1.9-0.5l-1.9-0.6l-3.9-1.1l-3.8-1.3l-1.9-0.7l-1.9-0.8l-3.7-1.5c-4.9-2.3-9.7-4.7-14.2-7.7
				c-2.3-1.4-4.5-3-6.7-4.5c-1.1-0.7-2.1-1.7-3.2-2.5c-1.1-0.9-2.2-1.7-3.2-2.6c-8.3-7.1-16-15.1-22.7-24.1
				c-6.7-9-12.7-18.6-17.8-28.8c-5.1-10.2-9.5-20.9-13.1-31.9c-3.6-11-6.4-22.2-7.8-33.2c-0.3-2.8-0.6-5.5-0.7-8.3
				c-0.2-2.8-0.1-5.5-0.2-8.2c0.2-5.5,0.6-11,1.5-16.4c0.5-3.7,1.4-10.2,4.1-18.4c2.7-8.2,6.8-18.1,13.6-28.1
				c6.8-10,16-19.9,28-27.6c11.9-7.8,26.3-13.3,41.4-15.1c7.5-0.9,15.1-0.8,22.6,0.1c7.5,1,15.1,2.9,22.4,5.4
				c7.3,2.5,14.5,5.6,21.3,9.2c1.7,0.9,3.4,1.7,5.1,2.6c1.7,0.8,3.3,1.9,4.9,2.8c1.6,0.9,3.2,1.9,4.8,2.8c1.5,1,3.1,2,4.6,2.9
				c12,7.8,22.3,16.2,30.6,24c1,1,2,1.9,3,2.9c0.5,0.5,1,0.9,1.5,1.4c0.5,0.5,0.9,1,1.4,1.4c1.8,1.9,3.5,3.7,5.1,5.3
				c1.6,1.7,3,3.4,4.4,4.9c1.3,1.6,2.7,2.9,3.7,4.3c1.1,1.3,2.2,2.6,3.3,3.9c4.8,5.9,9.5,12.5,14.1,19.2c1.1,1.7,2.2,3.5,3.3,5.2
				c1.1,1.8,2.2,3.5,3.3,5.2c1,1.8,2.1,3.6,3.1,5.4l1.6,2.7c0.5,0.9,1,1.8,1.4,2.7c1,1.8,1.9,3.6,2.9,5.4c1,1.8,1.8,3.6,2.7,5.4
				c0.9,1.8,1.7,3.6,2.6,5.3c0.8,1.8,1.6,3.5,2.3,5.3c3,6.9,5.4,13.4,7.2,19.4c1.7,5.4,3.1,10.9,4,16.5c0.8,5.6,1.1,11.3,0.8,17
				c0.2-0.7,0.3-1.3,0.5-1.9c0.1-0.6,0.3-1.3,0.4-1.9c0.2-1.3,0.5-2.5,0.7-3.7c0.2-1.2,0.4-2.4,0.5-3.6c0.1-1.2,0.2-2.3,0.4-3.4
				c0.2,5.9-0.3,11.8-1.1,16.8c-0.8,5-1.6,9.1-2,11.4c-1.4,6.3-2.6,10.1-2.9,12.2c-0.4,2.1-0.2,2.6,0.6,2c0.8-0.6,1.9-2.3,3.3-4.4
				c1.3-2.1,2.8-4.7,4-7c1.6-3.5,1.9-2.7,2.6-2.4c0.3,0.1,0.6,0.2,1.1-0.6c0.2-0.4,0.5-0.9,0.9-1.8c0.3-0.8,0.8-1.9,1.2-3.4
				c-0.9,4.3-1.8,7.4-2.7,10.6c-1,3.1-2.1,6.2-3.7,10.3c0.1,0.3,0.8-1.1,1.7-3.3c0.5-1.1,0.9-2.4,1.3-3.9c0.2-0.7,0.5-1.4,0.7-2.2
				c0.2-0.7,0.4-1.5,0.6-2.2c0.9-2.9,1.5-5.8,2-7.4c0.5-1.7,0.8-2.3,0.9-0.7c-2.1,8.2-4.6,17.4-8.3,25.4c0.6-0.6,1.7-2.6,3-5.3
				c0.6-1.4,1.3-2.9,1.9-4.5c0.6-1.6,1.2-3.3,1.8-5c0.5-1.7,1.1-3.4,1.5-4.9c0.4-1.6,0.8-3,1.2-4.2c0.6-2.4,1.1-3.8,1.3-3.4
				c-0.2,2.4-2.1,8.5-4.1,14c-0.5,1.4-1,2.7-1.5,4c-0.5,1.3-1,2.4-1.4,3.5c-0.7,2.1-1.3,3.6-1,4.1c0.1,0.2,1.1-1.7,2.1-4.3
				c1.1-2.5,2.2-5.7,2.9-7.9c-4,13.3-8.8,22.9-10.3,26.8c-0.7,2-0.6,2.5,0.6,1.2c0.6-0.6,1.5-1.7,2.6-3.4c0.6-0.8,1.2-1.8,1.9-2.9
				c0.7-1.1,1.4-2.4,2.2-3.8c-1.9,4.1-4.7,8.7-7.6,13.3c-3,4.6-6.2,9-8.9,12.8c0,0,0,0,0.1,0c1.4-1.9,3.4-4.4,5.2-7
				c0.9-1.3,1.8-2.6,2.6-3.8c0.8-1.2,1.5-2.3,2.1-3.2c-2.8,4.6-5.7,9-9,13.3c0.7-0.5,1.4-1.2,2.2-1.9c1.3-1.5,2.4-3.2,3.7-4.8
				c1.2-1.7,2.3-3.4,3.4-5.2c-1,1.5-1.9,3-2.9,4.5c-1,1.5-2,2.9-3,4.4c1.9-1.9,4.1-4.2,6.3-6.8c3.8-5.2,7.4-10.5,10.2-15.4
				c1.4-2.5,2.7-4.8,3.7-7c0.5-1.1,1-2.1,1.4-3.1c0.4-1,0.7-1.9,1-2.8c4.9-13.7,7.5-28.6,6.9-43.7c-0.7-15.1-4.4-29.4-9.3-42.5
				c-1.2-3.3-2.5-6.5-3.9-9.7l-4.2-9.5c-1.5-3.1-3.1-6.2-4.6-9.3l-1.2-2.3l-1.3-2.3l-2.5-4.5C318.7,143.8,311,132.3,302.4,121.5z"/>
		</g>
	</g>
</g>
<g id="g4415_4_" transform="translate(-40,-26)">
	<g>
		
			<linearGradient id="rect3854_1_" gradientUnits="userSpaceOnUse" x1="-319.0391" y1="-75.2924" x2="-124.6111" y2="-75.2924" gradientTransform="matrix(-1 0 0 -1 12.7417 119.1363)">
			<stop  offset="0" style="stop-color:#FF00CE"/>
			<stop  offset="0" style="stop-color:#D210B0"/>
			<stop  offset="0" style="stop-color:#603966"/>
			<stop  offset="0" style="stop-color:#005C27"/>
			<stop  offset="1" style="stop-color:#2EFF53"/>
		</linearGradient>
		<linearGradient id="rect3854_2_" gradientUnits="userSpaceOnUse" x1="136.7247" y1="194.3352" x2="332.3718" y2="194.3352">
			<stop  offset="0" style="stop-color:#FF00CE"/>
			<stop  offset="0" style="stop-color:#00E98B"/>
			<stop  offset="1" style="stop-color:#00551D"/>
		</linearGradient>
		<path id="rect3854_7_" class="st1" d="M331.8,256.9c-1.4,2.8-76.4,54.2-83.3,55.6L137.4,125L186,76.4L331.8,256.9z"/>
		
			<radialGradient id="rect4385_1_" cx="-385.3579" cy="-354.6019" r="45.5075" gradientTransform="matrix(-1.9836 -0.1526 6.143534e-02 -0.799 -403.8978 -22.7019)" gradientUnits="userSpaceOnUse">
			<stop  offset="0" style="stop-color:#000000"/>
			<stop  offset="1" style="stop-color:#191919"/>
		</radialGradient>
		<path id="rect4385_7_" class="st2" d="M338.7,319.4c6,9.9-25.5,13.9-34.7,6.9c-27.8-20.8-55.6-13.9-55.6-13.9l83.3-55.6
			C331.8,256.9,317.9,284.7,338.7,319.4z"/>
		<linearGradient id="rect4388_1_" gradientUnits="userSpaceOnUse" x1="304.0053" y1="329.8338" x2="352.6123" y2="329.8338">
			<stop  offset="0" style="stop-color:#FF00CE"/>
			<stop  offset="0" style="stop-color:#00D025"/>
			<stop  offset="1" style="stop-color:#107A18"/>
		</linearGradient>
		<path id="rect4388_7_" class="st3" d="M352.6,340.2h-34.7L304,326.4l34.7-6.9L352.6,340.2z"/>
		
			<linearGradient id="path4399_1_" gradientUnits="userSpaceOnUse" x1="-312.0952" y1="-54.4608" x2="-166.2742" y2="-54.4608" gradientTransform="matrix(-1 0 0 -1 12.7417 119.1363)">
			<stop  offset="0" style="stop-color:#FFFFFF;stop-opacity:9.803922e-02"/>
			<stop  offset="1" style="stop-color:#FFFFFF;stop-opacity:0.1961"/>
		</linearGradient>
		<path id="path4399_7_" class="st4" d="M324.8,256.9c0,6.9-13.9,6.9-13.9,6.9C304,250,179,90.3,179,90.3l6.9-6.9L324.8,256.9z"/>
	</g>
</g>
</svg>
